<?xml version="1.0" encoding="utf-8"?>
<!-- Generated by IcoMoon.io -->
<!DOCTYPE svg PUBLIC "-//W3C//DTD SVG 1.1//EN" "http://www.w3.org/Graphics/SVG/1.1/DTD/svg11.dtd">
<svg version="1.1" xmlns="http://www.w3.org/2000/svg" xmlns:xlink="http://www.w3.org/1999/xlink" width="22" height="22" viewBox="0 0 22 22">
<path fill="#362f2f" d="M21.597 0.403c-0.537-0.537-1.416-0.537-1.953 0l-2.798 2.801c-1.147-0.762-2.463-1.141-3.784-1.141-1.759 0-3.518 0.672-4.861 2.014l-4.125 4.125c-2.353 2.35-2.643 5.983-0.875 8.65l-2.798 2.801c-0.537 0.537-0.537 1.407 0 1.944 0.268 0.269 0.619 0.403 0.971 0.403s0.703-0.134 0.972-0.403l2.798-2.801c1.147 0.762 2.471 1.141 3.792 1.141 1.759 0 3.518-0.672 4.861-2.014l4.117-4.125c2.353-2.35 2.643-5.983 0.875-8.65l2.806-2.801c0.538-0.537 0.538-1.407 0.001-1.944zM17.179 8.938c0 1.101-0.43 2.137-1.209 2.916l-4.117 4.125c-0.779 0.779-1.815 1.209-2.916 1.209-0.623 0-1.219-0.153-1.767-0.414l2.052-2.051c0.537-0.537 0.537-1.407 0-1.944s-1.407-0.537-1.944 0l-2.051 2.051c-0.263-0.545-0.414-1.141-0.414-1.767 0-1.101 0.43-2.137 1.209-2.916l4.125-4.125c0.779-0.779 1.815-1.209 2.916-1.209 0.623 0 1.217 0.153 1.764 0.414l-2.092 2.095c-0.537 0.537-0.537 1.407 0 1.944 0.269 0.269 0.62 0.403 0.972 0.403 0.349 0 0.701-0.134 0.969-0.403l2.089-2.095c0.264 0.545 0.414 1.141 0.414 1.767z"></path>
</svg>
