<?xml version="1.0" encoding="utf-8"?>
<!-- Generated by IcoMoon.io -->
<!DOCTYPE svg PUBLIC "-//W3C//DTD SVG 1.1//EN" "http://www.w3.org/Graphics/SVG/1.1/DTD/svg11.dtd">
<svg version="1.1" xmlns="http://www.w3.org/2000/svg" xmlns:xlink="http://www.w3.org/1999/xlink" width="22" height="22" viewBox="0 0 22 22">
<path fill="#362f2f" d="M19.048 6.871c0.009 0.178 0.012 0.359 0.012 0.537 0 5.489-4.177 11.816-11.814 11.816-2.346 0-4.528-0.688-6.366-1.867 0.326 0.038 0.656 0.058 0.99 0.058 1.947 0 3.737-0.664 5.157-1.776-1.816-0.034-3.351-1.233-3.879-2.883 0.253 0.047 0.514 0.073 0.781 0.073 0.38 0 0.747-0.050 1.094-0.144-1.9-0.383-3.331-2.060-3.331-4.073 0-0.018 0-0.034 0-0.052 0.56 0.311 1.201 0.498 1.881 0.52-1.114-0.746-1.848-2.015-1.848-3.457 0-0.76 0.205-1.474 0.563-2.088 2.047 2.514 5.108 4.166 8.559 4.34-0.070-0.305-0.107-0.62-0.107-0.947 0-2.292 1.858-4.15 4.151-4.15 1.195 0 2.274 0.503 3.032 1.31 0.945-0.187 1.834-0.532 2.637-1.008-0.31 0.969-0.969 1.783-1.826 2.297 0.84-0.101 1.639-0.322 2.385-0.653-0.557 0.834-1.261 1.564-2.072 2.148z"></path>
</svg>
