<?xml version="1.0" encoding="utf-8"?><!DOCTYPE svg PUBLIC "-//W3C//DTD SVG 1.1//EN" "http://www.w3.org/Graphics/SVG/1.1/DTD/svg11.dtd"><svg version="1.1" id="Layer_1" xmlns="http://www.w3.org/2000/svg" xmlns:xlink="http://www.w3.org/1999/xlink" x="0px" y="0px"  viewBox="0 0 270 60" enable-background="new 0 0 270 60" xml:space="preserve"><path d="M0,59.7l4.4-11.6l4.2,11.6H0z M16.4,20.4L23.8,0l24.8,59.7h-16L16.4,20.4z M45.4,0.2C46.3,0.1,48,0,49.1,0 C65,0,71.5,7.8,71.5,18.9c0,14.3-12.6,18.5-23.5,18.5c-1.3,0-2.5-0.1-3.7-0.2v-0.4c11.4,0,13.4-8.8,13.4-17.8 c0-8.9-2.3-17.8-12.2-18.5V0.2z M77.6,20.4L85,0l24.8,59.7h-16L77.6,20.4z M105.7,28c0,0,0.8,0.1,1.7,0.1c9,0,9.9-7.2,9.9-12.7 c0-13.1-4.8-14.2-11.7-14.8V0.2c1.2-0.1,3.5-0.2,5.1-0.2c12.7,0,20.4,4.9,20.4,13.8c0,6.5-3.3,15-22.1,15c-1.6,0-2.6-0.1-3.2-0.2V28 z M158.6,59.7h-13.8V0.3h13.8V59.7z M171.6,0.3h14v43.2c0,9.7,2.3,15.2,11.6,15.2c4,0,6.3-1.3,6.6-1.4l0.3,0.7 c-0.3,0.3-3.5,2.1-9.9,2.1c-12.6,0-22.7-4.2-22.7-18.6V0.3z M212.7,0.3l17.9,37.4L223.5,60L196.9,0.3H212.7z M235.9,21.7L242.4,0 L270,59.7h-16L235.9,21.7z M119.3,39.8c0-4-0.9-9.4-9.6-11.1v-0.1c1.4-0.2,2.9-0.2,4.2-0.2c12.7,0,19.9,5.9,19.9,14.1v9.2 c0,5.1,1.5,7.2,4.6,7.2v0.5c0,0-0.9,0.3-3.7,0.3c-7.6,0-15.5-2.8-15.5-13.1V39.8z"/></svg>