<?xml version="1.0" encoding="utf-8"?>
<!-- Generated by IcoMoon.io -->
<!DOCTYPE svg PUBLIC "-//W3C//DTD SVG 1.1//EN" "http://www.w3.org/Graphics/SVG/1.1/DTD/svg11.dtd">
<svg version="1.1" xmlns="http://www.w3.org/2000/svg" xmlns:xlink="http://www.w3.org/1999/xlink" width="22" height="22" viewBox="0 0 22 22">
<path fill="#362f2f" d="M19.556 3.667h-17.111c-0.675 0-1.222 0.548-1.222 1.222v12.222c0 0.675 0.548 1.222 1.222 1.222h17.111c0.675 0 1.222-0.548 1.222-1.222v-12.222c0-0.675-0.548-1.222-1.222-1.222zM17.866 6.111l-6.866 4.682-6.866-4.682h13.733zM18.333 15.278c0 0.337-0.274 0.611-0.611 0.611h-13.444c-0.337 0-0.611-0.274-0.611-0.611v-6.555l6.719 4.55c0.189 0.114 0.402 0.17 0.615 0.17s0.425-0.056 0.615-0.17l6.719-4.55v6.555z"></path>
</svg>
