<?xml version="1.0" encoding="utf-8"?>
<!-- Generated by IcoMoon.io -->
<!DOCTYPE svg PUBLIC "-//W3C//DTD SVG 1.1//EN" "http://www.w3.org/Graphics/SVG/1.1/DTD/svg11.dtd">
<svg version="1.1" xmlns="http://www.w3.org/2000/svg" xmlns:xlink="http://www.w3.org/1999/xlink" width="22" height="22" viewBox="0 0 22 22">
<path fill="#362f2f" d="M11 0c-6.075 0-11 4.925-11 11s4.925 11 11 11 11-4.925 11-11-4.925-11-11-11zM17.533 17.533c-0.849 0.849-1.837 1.515-2.937 1.981-0.279 0.118-0.563 0.222-0.851 0.311v-1.649c0-0.866-0.297-1.504-0.892-1.912 0.373-0.036 0.714-0.086 1.026-0.151s0.641-0.157 0.989-0.279 0.659-0.267 0.934-0.435 0.54-0.387 0.795-0.655 0.468-0.573 0.639-0.913 0.308-0.749 0.408-1.224 0.151-1.001 0.151-1.574c0-1.11-0.362-2.056-1.085-2.836 0.329-0.859 0.294-1.794-0.107-2.804l-0.269-0.032c-0.186-0.021-0.521 0.057-1.004 0.236s-1.026 0.473-1.627 0.881c-0.852-0.236-1.737-0.355-2.653-0.355-0.924 0-1.805 0.118-2.643 0.355-0.38-0.258-0.739-0.471-1.079-0.639s-0.613-0.283-0.817-0.344-0.394-0.098-0.569-0.113-0.288-0.018-0.338-0.011-0.086 0.014-0.107 0.021c-0.401 1.017-0.437 1.952-0.107 2.804-0.723 0.78-1.085 1.726-1.085 2.836 0 0.573 0.050 1.097 0.151 1.574s0.237 0.884 0.408 1.224 0.385 0.645 0.639 0.913 0.519 0.487 0.795 0.655 0.587 0.313 0.934 0.435 0.676 0.215 0.989 0.279 0.653 0.115 1.026 0.151c-0.587 0.401-0.881 1.038-0.881 1.912v1.681c-0.325-0.096-0.644-0.21-0.958-0.344-1.1-0.465-2.088-1.132-2.937-1.981s-1.515-1.837-1.981-2.937c-0.481-1.138-0.725-2.347-0.725-3.596s0.244-2.458 0.725-3.596c0.465-1.1 1.132-2.088 1.981-2.937s1.837-1.515 2.937-1.981c1.138-0.481 2.348-0.725 3.596-0.725s2.458 0.244 3.596 0.725c1.1 0.465 2.088 1.132 2.937 1.981s1.515 1.837 1.981 2.937c0.481 1.138 0.725 2.348 0.725 3.596s-0.244 2.458-0.725 3.596c-0.465 1.1-1.132 2.088-1.981 2.937z"></path>
</svg>
